# xmcd
#
# Track frame offsets:
#	150
#	17681
#	42806
#	60687
#	78153
#	91038
#	115502
#	132920
#	151194
#	164302
#	178500
#	189282
#	213110
#	227029
#	250433
#	262509
#
# Disc length: 3695 seconds
#
# Revision: 1
# Processed by: cddbd v1.5.2PL0 Copyright (c) Steve Scherf et al.
# Submitted via: audiograbber 1.83.01
#
DISCID=b40e6d10
DTITLE=Don Rich - You're Mistaken
DYEAR=2009
DGENRE=Swamp Pop
TTITLE0=You're Mistaken
TTITLE1=Mr. Rainmaker
TTITLE2=I Buy Her Roses
TTITLE3=If You Still
TTITLE4=It's My Life
TTITLE5=Change is Gonna Come
TTITLE6=A Lady Now
TTITLE7=It Hurt So Bad
TTITLE8=Too Weak to Fight
TTITLE9=Good Hearted Man
TTITLE10=Child, I Love You So
TTITLE11=Day Dreamin'
TTITLE12=Hold On, I'm Comin'
TTITLE13=Into The Mystic
TTITLE14=I Think I Love You
TTITLE15=Before I Grow Too Old
EXTD=
EXTT0=
EXTT1=
EXTT2=
EXTT3=
EXTT4=
EXTT5=
EXTT6=
EXTT7=
EXTT8=
EXTT9=
EXTT10=
EXTT11=
EXTT12=
EXTT13=
EXTT14=
EXTT15=
PLAYORDER=
